<?xml version="1.0" encoding="UTF-8" standalone="no" ?>
<COLLADA xmlns="http://www.collada.org/2005/11/COLLADASchema" version="1.4.1">
  <asset>
    <contributor>
      <author>Assimp</author>
      <authoring_tool>Assimp Exporter</authoring_tool>
    </contributor>
    <created>2026-06-30T15:29:41</created>
    <modified>2026-06-30T15:29:41</modified>
    <unit name="meter" meter="1" />
    <up_axis>Y_UP</up_axis>
  </asset>
  <library_images>
  </library_images>
  <library_effects>
    <effect id="DefaultMaterial-fx" name="DefaultMaterial">
      <profile_COMMON>
        <technique sid="standard">
          <phong>
            <emission>
              <color sid="emission">0   0   0   1</color>
            </emission>
            <ambient>
              <color sid="ambient">0   0   0   1</color>
            </ambient>
            <diffuse>
              <color sid="diffuse">0.600000024   0.600000024   0.600000024   1</color>
            </diffuse>
            <specular>
              <color sid="specular">0   0   0   1</color>
            </specular>
            <shininess>
              <float sid="shininess">0</float>
            </shininess>
            <transparent>
              <color sid="transparent">1   1   1   1</color>
            </transparent>
            <transparency>
              <float sid="transparency">1</float>
            </transparency>
            <index_of_refraction>
              <float sid="index_of_refraction">1</float>
            </index_of_refraction>
          </phong>
        </technique>
      </profile_COMMON>
    </effect>
    <effect id="wheat_gold-fx" name="wheat_gold">
      <profile_COMMON>
        <technique sid="standard">
          <phong>
            <emission>
              <color sid="emission">0   0   0   1</color>
            </emission>
            <ambient>
              <color sid="ambient">0.600000024   0.449999988   0.100000001   1</color>
            </ambient>
            <diffuse>
              <color sid="diffuse">0.850000024   0.680000007   0.150000006   1</color>
            </diffuse>
            <specular>
              <color sid="specular">0.100000001   0.100000001   0.0500000007   1</color>
            </specular>
            <shininess>
              <float sid="shininess">10</float>
            </shininess>
            <transparent>
              <color sid="transparent">1   1   1   1</color>
            </transparent>
            <transparency>
              <float sid="transparency">1</float>
            </transparency>
            <index_of_refraction>
              <float sid="index_of_refraction">1</float>
            </index_of_refraction>
          </phong>
        </technique>
      </profile_COMMON>
    </effect>
  </library_effects>
  <library_materials>
    <material id="DefaultMaterial" name="DefaultMaterial">
      <instance_effect url="#DefaultMaterial-fx"/>
    </material>
    <material id="wheat_gold" name="wheat_gold">
      <instance_effect url="#wheat_gold-fx"/>
    </material>
  </library_materials>
  <library_geometries>
    <geometry id="defaultobject_1" name="defaultobject" >
      <mesh>
        <source id="defaultobject_1-positions" name="defaultobject_1-positions">
          <float_array id="defaultobject_1-positions-array" count="432"> 0.0149999997 0 0 0.00749999983 0.0129899997 0 0.00749999983 0.0129899997 0.600000024 0.0149999997 0 0 0.00749999983 0.0129899997 0.600000024 0.0149999997 0 0.600000024 0.00749999983 0.0129899997 0 -0.00749999983 0.0129899997 0 -0.00749999983 0.0129899997 0.600000024 0.00749999983 0.0129899997 0 -0.00749999983 0.0129899997 0.600000024 0.00749999983 0.0129899997 0.600000024 -0.00749999983 0.0129899997 0 -0.0149999997 0 0 -0.0149999997 0 0.600000024 -0.00749999983 0.0129899997 0 -0.0149999997 0 0.600000024 -0.00749999983 0.0129899997 0.600000024 -0.0149999997 0 0 -0.00749999983 -0.0129899997 0 -0.00749999983 -0.0129899997 0.600000024 -0.0149999997 0 0 -0.00749999983 -0.0129899997 0.600000024 -0.0149999997 0 0.600000024 -0.00749999983 -0.0129899997 0 0.00749999983 -0.0129899997 0 0.00749999983 -0.0129899997 0.600000024 -0.00749999983 -0.0129899997 0 0.00749999983 -0.0129899997 0.600000024 -0.00749999983 -0.0129899997 0.600000024 0.00749999983 -0.0129899997 0 0.0149999997 0 0 0.0149999997 0 0.600000024 0.00749999983 -0.0129899997 0 0.0149999997 0 0.600000024 0.00749999983 -0.0129899997 0.600000024 0.0149999997 0 0 0.00749999983 0.0129899997 0 -0.00749999983 0.0129899997 0 0.0149999997 0 0 -0.00749999983 0.0129899997 0 -0.0149999997 0 0 0.0149999997 0 0 -0.0149999997 0 0 -0.00749999983 -0.0129899997 0 0.0149999997 0 0 -0.00749999983 -0.0129899997 0 0.00749999983 -0.0129899997 0 0.0149999997 0 0.600000024 -0.00749999983 0.0129899997 0.600000024 0.00749999983 0.0129899997 0.600000024 0.0149999997 0 0.600000024 -0.0149999997 0 0.600000024 -0.00749999983 0.0129899997 0.600000024 0.0149999997 0 0.600000024 -0.00749999983 -0.0129899997 0.600000024 -0.0149999997 0 0.600000024 0.0149999997 0 0.600000024 0.00749999983 -0.0129899997 0.600000024 -0.00749999983 -0.0129899997 0.600000024 0.0250000004 0 0.550000012 0.0125000002 0.0216509998 0.550000012 0.0125000002 0.0216509998 0.800000012 0.0250000004 0 0.550000012 0.0125000002 0.0216509998 0.800000012 0.0250000004 0 0.800000012 0.0125000002 0.0216509998 0.550000012 -0.0125000002 0.0216509998 0.550000012 -0.0125000002 0.0216509998 0.800000012 0.0125000002 0.0216509998 0.550000012 -0.0125000002 0.0216509998 0.800000012 0.0125000002 0.0216509998 0.800000012 -0.0125000002 0.0216509998 0.550000012 -0.0250000004 0 0.550000012 -0.0250000004 0 0.800000012 -0.0125000002 0.0216509998 0.550000012 -0.0250000004 0 0.800000012 -0.0125000002 0.0216509998 0.800000012 -0.0250000004 0 0.550000012 -0.0125000002 -0.0216509998 0.550000012 -0.0125000002 -0.0216509998 0.800000012 -0.0250000004 0 0.550000012 -0.0125000002 -0.0216509998 0.800000012 -0.0250000004 0 0.800000012 -0.0125000002 -0.0216509998 0.550000012 0.0125000002 -0.0216509998 0.550000012 0.0125000002 -0.0216509998 0.800000012 -0.0125000002 -0.0216509998 0.550000012 0.0125000002 -0.0216509998 0.800000012 -0.0125000002 -0.0216509998 0.800000012 0.0125000002 -0.0216509998 0.550000012 0.0250000004 0 0.550000012 0.0250000004 0 0.800000012 0.0125000002 -0.0216509998 0.550000012 0.0250000004 0 0.800000012 0.0125000002 -0.0216509998 0.800000012 0.0250000004 0 0.550000012 0.0125000002 0.0216509998 0.550000012 -0.0125000002 0.0216509998 0.550000012 0.0250000004 0 0.550000012 -0.0125000002 0.0216509998 0.550000012 -0.0250000004 0 0.550000012 0.0250000004 0 0.550000012 -0.0250000004 0 0.550000012 -0.0125000002 -0.0216509998 0.550000012 0.0250000004 0 0.550000012 -0.0125000002 -0.0216509998 0.550000012 0.0125000002 -0.0216509998 0.550000012 0.0250000004 0 0.800000012 -0.0125000002 0.0216509998 0.800000012 0.0125000002 0.0216509998 0.800000012 0.0250000004 0 0.800000012 -0.0250000004 0 0.800000012 -0.0125000002 0.0216509998 0.800000012 0.0250000004 0 0.800000012 -0.0125000002 -0.0216509998 0.800000012 -0.0250000004 0 0.800000012 0.0250000004 0 0.800000012 0.0125000002 -0.0216509998 0.800000012 -0.0125000002 -0.0216509998 0.800000012 -0.119999997 -0.00800000038 0.129999995 0 0.00800000038 0.129999995 0 0.00800000038 0.170000002 -0.119999997 -0.00800000038 0.129999995 0 0.00800000038 0.170000002 -0.119999997 -0.00800000038 0.170000002 0 -0.00800000038 0.230000004 0.119999997 0.00800000038 0.230000004 0.119999997 0.00800000038 0.270000011 0 -0.00800000038 0.230000004 0.119999997 0.00800000038 0.270000011 0 -0.00800000038 0.270000011 -0.00800000038 -0.100000001 0.335000008 0.00800000038 0 0.335000008 0.00800000038 0 0.36500001 -0.00800000038 -0.100000001 0.335000008 0.00800000038 0 0.36500001 -0.00800000038 -0.100000001 0.36500001 -0.00800000038 0 0.435000002 0.00800000038 0.100000001 0.435000002 0.00800000038 0.100000001 0.465000004 -0.00800000038 0 0.435000002 0.00800000038 0.100000001 0.465000004 -0.00800000038 0 0.465000004 </float_array>
          <technique_common>
            <accessor count="144" offset="0" source="#defaultobject_1-positions-array" stride="3">
              <param name="X" type="float" />
              <param name="Y" type="float" />
              <param name="Z" type="float" />
            </accessor>
          </technique_common>
        </source>
        <source id="defaultobject_1-tex0" name="defaultobject_1-tex0">
          <float_array id="defaultobject_1-tex0-array" count="288"> 0.5 0 0.666665018 0 0.666665018 0.75 0.5 0 0.666665018 0.75 0.5 0.75 0.666665018 0 0.833334982 0 0.833334982 0.75 0.666665018 0 0.833334982 0.75 0.666665018 0.75 0.833334982 0 1 0 1 0.75 0.833334982 0 1 0.75 0.833334982 0.75 1 0 0.166665003 0 0.166665003 0.75 1 0 0.166665003 0.75 1 0.75 0.166665003 0 0.333335012 0 0.333335012 0.75 0.166665003 0 0.333335012 0.75 0.166665003 0.75 0.333335012 0 0.5 0 0.5 0.75 0.333335012 0 0.5 0.75 0.333335012 0.75 0.5 0 0.666665018 0 0.833334982 0 0.5 0 0.833334982 0 1 0 0.5 0 1 0 0.166665003 0 0.5 0 0.166665003 0 0.333335012 0 0.5 0.75 0.833334982 0.75 0.666665018 0.75 0.5 0.75 1 0.75 0.833334982 0.75 0.5 0.75 0.166665003 0.75 1 0.75 0.5 0.75 0.333335012 0.75 0.166665003 0.75 0.5 0.6875 0.666667998 0.6875 0.666667998 1 0.5 0.6875 0.666667998 1 0.5 1 0.666667998 0.6875 0.833332002 0.6875 0.833332002 1 0.666667998 0.6875 0.833332002 1 0.666667998 1 0.833332002 0.6875 1 0.6875 1 1 0.833332002 0.6875 1 1 0.833332002 1 1 0.6875 0.166667998 0.6875 0.166667998 1 1 0.6875 0.166667998 1 1 1 0.166667998 0.6875 0.333332002 0.6875 0.333332002 1 0.166667998 0.6875 0.333332002 1 0.166667998 1 0.333332002 0.6875 0.5 0.6875 0.5 1 0.333332002 0.6875 0.5 1 0.333332002 1 0.5 0.6875 0.666667998 0.6875 0.833332002 0.6875 0.5 0.6875 0.833332002 0.6875 1 0.6875 0.5 0.6875 1 0.6875 0.166667998 0.6875 0.5 0.6875 0.166667998 0.6875 0.333332002 0.6875 0.5 1 0.833332002 1 0.666667998 1 0.5 1 1 1 0.833332002 1 0.5 1 0.166667998 1 1 1 0.5 1 0.333332002 1 0.166667998 1 0.0105950003 0.162499994 0.75 0.162499994 0.75 0.212500006 0.0105950003 0.162499994 0.75 0.212500006 0.0105950003 0.212500006 0.25 0.287499994 0.510595024 0.287499994 0.510595024 0.337500006 0.25 0.287499994 0.510595024 0.337500006 0.25 0.337500006 0.237295002 0.418749988 0.5 0.418749988 0.5 0.456250012 0.237295002 0.418749988 0.5 0.456250012 0.237295002 0.456250012 1 0.543749988 0.737294972 0.543749988 0.737294972 0.581250012 1 0.543749988 0.737294972 0.581250012 1 0.581250012 </float_array>
          <technique_common>
            <accessor count="144" offset="0" source="#defaultobject_1-tex0-array" stride="2">
              <param name="S" type="float" />
              <param name="T" type="float" />
            </accessor>
          </technique_common>
        </source>
        <vertices id="defaultobject_1-vertices">
          <input semantic="POSITION" source="#defaultobject_1-positions" />
        </vertices>
        <polylist count="48" material="defaultMaterial">
          <input offset="0" semantic="VERTEX" source="#defaultobject_1-vertices" />
          <input offset="0" semantic="TEXCOORD" source="#defaultobject_1-tex0" set="0" />
          <vcount>3 3 3 3 3 3 3 3 3 3 3 3 3 3 3 3 3 3 3 3 3 3 3 3 3 3 3 3 3 3 3 3 3 3 3 3 3 3 3 3 3 3 3 3 3 3 3 3 </vcount>
          <p>0 1 2 3 4 5 6 7 8 9 10 11 12 13 14 15 16 17 18 19 20 21 22 23 24 25 26 27 28 29 30 31 32 33 34 35 36 37 38 39 40 41 42 43 44 45 46 47 48 49 50 51 52 53 54 55 56 57 58 59 60 61 62 63 64 65 66 67 68 69 70 71 72 73 74 75 76 77 78 79 80 81 82 83 84 85 86 87 88 89 90 91 92 93 94 95 96 97 98 99 100 101 102 103 104 105 106 107 108 109 110 111 112 113 114 115 116 117 118 119 120 121 122 123 124 125 126 127 128 129 130 131 132 133 134 135 136 137 138 139 140 141 142 143 </p>
        </polylist>
      </mesh>
    </geometry>
  </library_geometries>
  <library_controllers>
  </library_controllers>
  <library_visual_scenes>
    <visual_scene id="wheat_lowpoly.obj" name="wheat_lowpoly.obj">
      <node id="defaultobject" name="defaultobject" type="NODE">
        <matrix sid="matrix">1 0 0 0 0 1 0 0 0 0 1 0 0 0 0 1</matrix>
        <instance_geometry url="#defaultobject_1">
          <bind_material>
            <technique_common>
              <instance_material symbol="defaultMaterial" target="#wheat_gold">
                <bind_vertex_input semantic="CHANNEL0" input_semantic="TEXCOORD" input_set="0"/>
              </instance_material>
            </technique_common>
          </bind_material>
        </instance_geometry>
      </node>
    </visual_scene>
  </library_visual_scenes>
  <scene>
    <instance_visual_scene url="#wheat_lowpoly.obj" />
  </scene>
</COLLADA>
