solid AssimpScene
 facet normal 0.866019011 0.500011027 0
  outer loop
  vertex 0.0149999997 0 0
  vertex 0.00749999983 0.0129899997 0
  vertex 0.00749999983 0.0129899997 0.600000024
  endloop
 endfacet

 facet normal 0.866019011 0.500011027 0
  outer loop
  vertex 0.0149999997 0 0
  vertex 0.00749999983 0.0129899997 0.600000024
  vertex 0.0149999997 0 0.600000024
  endloop
 endfacet

 facet normal 0 1 0
  outer loop
  vertex 0.00749999983 0.0129899997 0
  vertex -0.00749999983 0.0129899997 0
  vertex -0.00749999983 0.0129899997 0.600000024
  endloop
 endfacet

 facet normal 0 1 0
  outer loop
  vertex 0.00749999983 0.0129899997 0
  vertex -0.00749999983 0.0129899997 0.600000024
  vertex 0.00749999983 0.0129899997 0.600000024
  endloop
 endfacet

 facet normal -0.866019011 0.500011027 0
  outer loop
  vertex -0.00749999983 0.0129899997 0
  vertex -0.0149999997 0 0
  vertex -0.0149999997 0 0.600000024
  endloop
 endfacet

 facet normal -0.866019011 0.500011027 0
  outer loop
  vertex -0.00749999983 0.0129899997 0
  vertex -0.0149999997 0 0.600000024
  vertex -0.00749999983 0.0129899997 0.600000024
  endloop
 endfacet

 facet normal -0.866019011 -0.500011027 0
  outer loop
  vertex -0.0149999997 0 0
  vertex -0.00749999983 -0.0129899997 0
  vertex -0.00749999983 -0.0129899997 0.600000024
  endloop
 endfacet

 facet normal -0.866019011 -0.500011027 0
  outer loop
  vertex -0.0149999997 0 0
  vertex -0.00749999983 -0.0129899997 0.600000024
  vertex -0.0149999997 0 0.600000024
  endloop
 endfacet

 facet normal 0 -1 0
  outer loop
  vertex -0.00749999983 -0.0129899997 0
  vertex 0.00749999983 -0.0129899997 0
  vertex 0.00749999983 -0.0129899997 0.600000024
  endloop
 endfacet

 facet normal 0 -1 0
  outer loop
  vertex -0.00749999983 -0.0129899997 0
  vertex 0.00749999983 -0.0129899997 0.600000024
  vertex -0.00749999983 -0.0129899997 0.600000024
  endloop
 endfacet

 facet normal 0.866019011 -0.500011027 0
  outer loop
  vertex 0.00749999983 -0.0129899997 0
  vertex 0.0149999997 0 0
  vertex 0.0149999997 0 0.600000024
  endloop
 endfacet

 facet normal 0.866019011 -0.500011027 0
  outer loop
  vertex 0.00749999983 -0.0129899997 0
  vertex 0.0149999997 0 0.600000024
  vertex 0.00749999983 -0.0129899997 0.600000024
  endloop
 endfacet

 facet normal 0 0 1
  outer loop
  vertex 0.0149999997 0 0
  vertex 0.00749999983 0.0129899997 0
  vertex -0.00749999983 0.0129899997 0
  endloop
 endfacet

 facet normal 0 0 1
  outer loop
  vertex 0.0149999997 0 0
  vertex -0.00749999983 0.0129899997 0
  vertex -0.0149999997 0 0
  endloop
 endfacet

 facet normal 0 0 1
  outer loop
  vertex 0.0149999997 0 0
  vertex -0.0149999997 0 0
  vertex -0.00749999983 -0.0129899997 0
  endloop
 endfacet

 facet normal 0 0 1
  outer loop
  vertex 0.0149999997 0 0
  vertex -0.00749999983 -0.0129899997 0
  vertex 0.00749999983 -0.0129899997 0
  endloop
 endfacet

 facet normal 0 0 -1
  outer loop
  vertex 0.0149999997 0 0.600000024
  vertex -0.00749999983 0.0129899997 0.600000024
  vertex 0.00749999983 0.0129899997 0.600000024
  endloop
 endfacet

 facet normal 0 0 -1
  outer loop
  vertex 0.0149999997 0 0.600000024
  vertex -0.0149999997 0 0.600000024
  vertex -0.00749999983 0.0129899997 0.600000024
  endloop
 endfacet

 facet normal 0 0 -1
  outer loop
  vertex 0.0149999997 0 0.600000024
  vertex -0.00749999983 -0.0129899997 0.600000024
  vertex -0.0149999997 0 0.600000024
  endloop
 endfacet

 facet normal 0 0 -1
  outer loop
  vertex 0.0149999997 0 0.600000024
  vertex 0.00749999983 -0.0129899997 0.600000024
  vertex -0.00749999983 -0.0129899997 0.600000024
  endloop
 endfacet

 facet normal 0.866029143 0.499993712 0
  outer loop
  vertex 0.0250000004 0 0.550000012
  vertex 0.0125000002 0.0216509998 0.550000012
  vertex 0.0125000002 0.0216509998 0.800000012
  endloop
 endfacet

 facet normal 0.866029143 0.499993712 0
  outer loop
  vertex 0.0250000004 0 0.550000012
  vertex 0.0125000002 0.0216509998 0.800000012
  vertex 0.0250000004 0 0.800000012
  endloop
 endfacet

 facet normal 0 1 0
  outer loop
  vertex 0.0125000002 0.0216509998 0.550000012
  vertex -0.0125000002 0.0216509998 0.550000012
  vertex -0.0125000002 0.0216509998 0.800000012
  endloop
 endfacet

 facet normal 0 1 0
  outer loop
  vertex 0.0125000002 0.0216509998 0.550000012
  vertex -0.0125000002 0.0216509998 0.800000012
  vertex 0.0125000002 0.0216509998 0.800000012
  endloop
 endfacet

 facet normal -0.866029143 0.499993712 0
  outer loop
  vertex -0.0125000002 0.0216509998 0.550000012
  vertex -0.0250000004 0 0.550000012
  vertex -0.0250000004 0 0.800000012
  endloop
 endfacet

 facet normal -0.866029143 0.499993712 0
  outer loop
  vertex -0.0125000002 0.0216509998 0.550000012
  vertex -0.0250000004 0 0.800000012
  vertex -0.0125000002 0.0216509998 0.800000012
  endloop
 endfacet

 facet normal -0.866029143 -0.499993712 0
  outer loop
  vertex -0.0250000004 0 0.550000012
  vertex -0.0125000002 -0.0216509998 0.550000012
  vertex -0.0125000002 -0.0216509998 0.800000012
  endloop
 endfacet

 facet normal -0.866029143 -0.499993712 0
  outer loop
  vertex -0.0250000004 0 0.550000012
  vertex -0.0125000002 -0.0216509998 0.800000012
  vertex -0.0250000004 0 0.800000012
  endloop
 endfacet

 facet normal 0 -1 0
  outer loop
  vertex -0.0125000002 -0.0216509998 0.550000012
  vertex 0.0125000002 -0.0216509998 0.550000012
  vertex 0.0125000002 -0.0216509998 0.800000012
  endloop
 endfacet

 facet normal 0 -1 0
  outer loop
  vertex -0.0125000002 -0.0216509998 0.550000012
  vertex 0.0125000002 -0.0216509998 0.800000012
  vertex -0.0125000002 -0.0216509998 0.800000012
  endloop
 endfacet

 facet normal 0.866029143 -0.499993712 0
  outer loop
  vertex 0.0125000002 -0.0216509998 0.550000012
  vertex 0.0250000004 0 0.550000012
  vertex 0.0250000004 0 0.800000012
  endloop
 endfacet

 facet normal 0.866029143 -0.499993712 0
  outer loop
  vertex 0.0125000002 -0.0216509998 0.550000012
  vertex 0.0250000004 0 0.800000012
  vertex 0.0125000002 -0.0216509998 0.800000012
  endloop
 endfacet

 facet normal 0 0 1
  outer loop
  vertex 0.0250000004 0 0.550000012
  vertex 0.0125000002 0.0216509998 0.550000012
  vertex -0.0125000002 0.0216509998 0.550000012
  endloop
 endfacet

 facet normal 0 0 1
  outer loop
  vertex 0.0250000004 0 0.550000012
  vertex -0.0125000002 0.0216509998 0.550000012
  vertex -0.0250000004 0 0.550000012
  endloop
 endfacet

 facet normal 0 0 1
  outer loop
  vertex 0.0250000004 0 0.550000012
  vertex -0.0250000004 0 0.550000012
  vertex -0.0125000002 -0.0216509998 0.550000012
  endloop
 endfacet

 facet normal 0 0 1
  outer loop
  vertex 0.0250000004 0 0.550000012
  vertex -0.0125000002 -0.0216509998 0.550000012
  vertex 0.0125000002 -0.0216509998 0.550000012
  endloop
 endfacet

 facet normal 0 0 -1
  outer loop
  vertex 0.0250000004 0 0.800000012
  vertex -0.0125000002 0.0216509998 0.800000012
  vertex 0.0125000002 0.0216509998 0.800000012
  endloop
 endfacet

 facet normal 0 0 -1
  outer loop
  vertex 0.0250000004 0 0.800000012
  vertex -0.0250000004 0 0.800000012
  vertex -0.0125000002 0.0216509998 0.800000012
  endloop
 endfacet

 facet normal 0 0 -1
  outer loop
  vertex 0.0250000004 0 0.800000012
  vertex -0.0125000002 -0.0216509998 0.800000012
  vertex -0.0250000004 0 0.800000012
  endloop
 endfacet

 facet normal 0 0 -1
  outer loop
  vertex 0.0250000004 0 0.800000012
  vertex 0.0125000002 -0.0216509998 0.800000012
  vertex -0.0125000002 -0.0216509998 0.800000012
  endloop
 endfacet

 facet normal 0.132163718 -0.991227865 0
  outer loop
  vertex -0.119999997 -0.00800000038 0.129999995
  vertex 0 0.00800000038 0.129999995
  vertex 0 0.00800000038 0.170000002
  endloop
 endfacet

 facet normal 0.132163718 -0.991227865 0
  outer loop
  vertex -0.119999997 -0.00800000038 0.129999995
  vertex 0 0.00800000038 0.170000002
  vertex -0.119999997 -0.00800000038 0.170000002
  endloop
 endfacet

 facet normal 0.132163718 -0.991227865 0
  outer loop
  vertex 0 -0.00800000038 0.230000004
  vertex 0.119999997 0.00800000038 0.230000004
  vertex 0.119999997 0.00800000038 0.270000011
  endloop
 endfacet

 facet normal 0.132163718 -0.991227865 0
  outer loop
  vertex 0 -0.00800000038 0.230000004
  vertex 0.119999997 0.00800000038 0.270000011
  vertex 0 -0.00800000038 0.270000011
  endloop
 endfacet

 facet normal 0.987440586 -0.157990485 0
  outer loop
  vertex -0.00800000038 -0.100000001 0.335000008
  vertex 0.00800000038 0 0.335000008
  vertex 0.00800000038 0 0.36500001
  endloop
 endfacet

 facet normal 0.987440586 -0.157990485 0
  outer loop
  vertex -0.00800000038 -0.100000001 0.335000008
  vertex 0.00800000038 0 0.36500001
  vertex -0.00800000038 -0.100000001 0.36500001
  endloop
 endfacet

 facet normal 0.987440586 -0.157990485 0
  outer loop
  vertex -0.00800000038 0 0.435000002
  vertex 0.00800000038 0.100000001 0.435000002
  vertex 0.00800000038 0.100000001 0.465000004
  endloop
 endfacet

 facet normal 0.987440586 -0.157990485 0
  outer loop
  vertex -0.00800000038 0 0.435000002
  vertex 0.00800000038 0.100000001 0.465000004
  vertex -0.00800000038 0 0.465000004
  endloop
 endfacet

endsolid AssimpScene
